<svg id="Layer_1" data-name="Layer 1" xmlns="http://www.w3.org/2000/svg" viewBox="0 0 512 512">
  <defs>
    <style>
      .cls-1 {
        fill: none;
        stroke: #000;
        stroke-miterlimit: 10;
        stroke-width: 38px;
      }
    </style>
  </defs>
  <polygon class="cls-1" points="388.62 434.52 29.07 434.52 123.38 183.48 482.93 183.48 388.62 434.52"/>
  <path d="M286.35,299.53V84.24l39.79,40.14a18.46,18.46,0,1,0,26.22-26L281,26.42l0,0q-.63-.63-1.32-1.2h0A18.39,18.39,0,0,0,267.89,21h0a18.68,18.68,0,0,0-3.45.33l-.19,0c-.55.11-1.09.25-1.62.41l-.14,0a18.42,18.42,0,0,0-4.8,2.28l-.09.05c-.31.21-.6.44-.9.67a18.78,18.78,0,0,0-1.92,1.65l-71.36,72a18.46,18.46,0,1,0,26.21,26l39.8-40.15V299.53"/>
</svg>
