<svg xmlns="http://www.w3.org/2000/svg" viewBox="0 0 1253 923" width="1253" height="923"><defs></defs><g transform="matrix(1,0,0,1,-56,9)">
<rect fill="#ffffff" fill-opacity="0" x="56" y="-9" width="789" height="923"/>
<g transform="matrix(1,0,0,1,56,-9)">
	<g>
		<path d="M377.34926748780896,302.57705491997507 C535.7888566833508,302.57705491997507 664.4894634049131,431.2776616415373 664.4894634049131,589.7172508370791 C664.4894634049131,748.1568400326208 535.7888566833508,876.857446754183 377.34926748780896,876.857446754183 C218.90967829226716,876.857446754183 90.20907157070491,748.1568400326208 90.20907157070491,589.7172508370791 C90.20907157070491,431.2776616415373 218.90967829226716,302.57705491997507 377.34926748780896,302.57705491997507 Z" transform="matrix(1,0,0,1,0,0)" fill="#ea7401"/>
	</g>
	<g>
		<path d="M478.5956022994788,477.04593702707245 C478.5956022994788,477.04593702707245 478.5956022994788,182.19747225726496 478.5956022994788,182.19747225726496" transform="matrix(1,0,0,1,-91.246334812,-122.047634311)" fill="none" stroke="#ea7401" stroke-width="100" stroke-linecap="round"/>
	</g>
	<g>
		<path d="M588.1069762064908,540 C588.1069762064908,540 819.2075160344132,308.8994601720777 819.2075160344132,308.8994601720777" transform="matrix(1,0,0,1,-97.333503188,-95.047634311)" fill="none" stroke="#ea7401" stroke-width="100" stroke-linecap="round"/>
	</g>
	<g>
		<path d="M588.1069762064908,540 C588.1069762064908,540 819.2075160344132,308.8994601720777 819.2075160344132,308.8994601720777" transform="matrix(-1.175144581,0,0,1.175144581,1030.769531837,-137.814054266)" fill="none" stroke="#ea7401" stroke-width="100" stroke-linecap="round"/>
	</g>
	<g>
		<path d="M380.3492674878089,405.47764384981247 C491.3091169618816,405.47764384981247 581.4418926245453,493.4352229041691 581.4418926245453,601.7172508370792 C581.4418926245453,709.9992787699892 491.3091169618816,797.9568578243459 380.3492674878089,797.9568578243459 C269.3894180137362,797.9568578243459 179.25664235107246,709.9992787699892 179.25664235107246,601.7172508370792 C179.25664235107246,493.4352229041691 269.3894180137362,405.47764384981247 380.3492674878089,405.47764384981247 Z" fill="#fefefe"/>
	</g>
	<g>
		<path d="M380.3492674878089,496.1819590594265 C464.2877541443602,496.1819590594265 532.47105488907,543.4844833157036 532.47105488907,601.7172508370791 C532.47105488907,659.9500183584545 464.2877541443602,707.2525426147316 380.3492674878089,707.2525426147316 C296.4107808312576,707.2525426147316 228.22748008654779,659.9500183584545 228.22748008654779,601.7172508370791 C228.22748008654779,543.4844833157036 296.4107808312576,496.1819590594265 380.3492674878089,496.1819590594265 Z" fill="#245786"/>
	</g>
</g>
<rect fill="#ffffff" fill-opacity="0" x="1308" y="559" width="1" height="1"/>
<g transform="matrix(1,0,0,1,1308,559)"/></g></svg>